<?xml version="1.0" encoding="utf-8"?>
<!-- Generator: Adobe Illustrator 26.0.2, SVG Export Plug-In . SVG Version: 6.00 Build 0)  -->
<svg version="1.1" xmlns="http://www.w3.org/2000/svg" xmlns:xlink="http://www.w3.org/1999/xlink" x="0px" y="0px"
	 viewBox="0 0 1466 687" style="enable-background:new 0 0 1466 687;" xml:space="preserve">
<style type="text/css">
	.st0{fill:none;stroke:#8C93C6;stroke-width:5;stroke-miterlimit:10;}
	.st1{opacity:0.75;}
	.st2{fill:#FFFFFF;}
</style>
<g id="Layer_4">
</g>
<g id="Layer_3">
	<g>
		
			<ellipse transform="matrix(0.9377 -0.3475 0.3475 0.9377 -74.769 271.0472)" class="st0" cx="718.31" cy="343.98" rx="696.61" ry="245.8"/>
		
			<ellipse transform="matrix(0.9914 -0.1311 0.1311 0.9914 -41.9963 99.2498)" class="st0" cx="732.69" cy="368.54" rx="732.5" ry="225.43"/>
	</g>
</g>
<g id="Layer_2">
	<g>
		<g class="st1">
			<polygon points="180,182 169,202 169,360.99 180,382.38 191,361 191,202 			"/>
			<polygon points="397.5,182 386.5,202 386.5,360.99 397.5,382.38 408.5,361 408.5,202 			"/>
			<polygon points="180,391 169,411 169,569.99 180,591.38 191,570 191,411 			"/>
			<polygon points="397.5,391 386.5,411 386.5,569.99 397.5,591.38 408.5,570 408.5,411 			"/>
			<polygon points="389.07,174.5 369.07,163.5 210.08,163.5 188.69,174.5 210.07,185.5 369.07,185.5 			"/>
			<polygon points="389.07,599.5 369.07,588.5 210.08,588.5 188.69,599.5 210.07,610.5 369.07,610.5 			"/>
			<polygon points="451,182 440,202 440,360.99 451,382.38 462,361 462,202 			"/>
			<polygon points="668.5,182 657.5,202 657.5,360.99 668.5,382.38 679.5,361 679.5,202 			"/>
			<polygon points="451,391 440,411 440,569.99 451,591.38 462,570 462,411 			"/>
			<polygon points="668.5,391 657.5,411 657.5,569.99 668.5,591.38 679.5,570 679.5,411 			"/>
			<polygon points="660.07,174.5 640.07,163.5 481.08,163.5 459.69,174.5 481.07,185.5 640.07,185.5 			"/>
			<polygon points="660.07,599.5 640.07,588.5 481.08,588.5 459.69,599.5 481.07,610.5 640.07,610.5 			"/>
			<polygon points="808,182 797,202 797,360.99 808,382.38 819,361 819,202 			"/>
			<polygon points="1025.5,182 1014.5,202 1014.5,360.99 1025.5,382.38 1036.5,361 1036.5,202 			"/>
			<polygon points="808,391 797,411 797,569.99 808,591.38 819,570 819,411 			"/>
			<polygon points="1025.5,391 1014.5,411 1014.5,569.99 1025.5,591.38 1036.5,570 1036.5,411 			"/>
			<polygon points="1017.07,174.5 997.07,163.5 838.08,163.5 816.69,174.5 838.07,185.5 997.07,185.5 			"/>
			<polygon points="1017.07,599.5 997.07,588.5 838.08,588.5 816.69,599.5 838.07,610.5 997.07,610.5 			"/>
			<polygon points="1079,182 1068,202 1068,360.99 1079,382.38 1090,361 1090,202 			"/>
			<polygon points="1296.5,182 1285.5,202 1285.5,360.99 1296.5,382.38 1307.5,361 1307.5,202 			"/>
			<polygon points="1079,391 1068,411 1068,569.99 1079,591.38 1090,570 1090,411 			"/>
			<polygon points="1296.5,391 1285.5,411 1285.5,569.99 1296.5,591.38 1307.5,570 1307.5,411 			"/>
			<polygon points="1288.07,174.5 1268.07,163.5 1109.08,163.5 1087.69,174.5 1109.07,185.5 1268.07,185.5 			"/>
			<polygon points="1288.07,599.5 1268.07,588.5 1109.08,588.5 1087.69,599.5 1109.07,610.5 1268.07,610.5 			"/>
			<rect x="724.5" y="331.5" width="19" height="19"/>
			<rect x="725" y="423" width="19" height="19"/>
		</g>
		<g>
			<g>
				<g>
					<g>
						<polygon class="st2" points="173,175 162,195 162,353.99 173,375.38 184,354 184,195 						"/>
						<polygon class="st2" points="390.5,175 379.5,195 379.5,353.99 390.5,375.38 401.5,354 401.5,195 						"/>
						<g>
							<polygon class="st2" points="173,384 162,404 162,562.99 173,584.38 184,563 184,404 							"/>
							<polygon class="st2" points="390.5,384 379.5,404 379.5,562.99 390.5,584.38 401.5,563 401.5,404 							"/>
						</g>
						<polygon class="st2" points="382.07,167.5 362.07,156.5 203.08,156.5 181.69,167.5 203.07,178.5 362.07,178.5 						"/>
						<polygon class="st2" points="382.07,592.5 362.07,581.5 203.08,581.5 181.69,592.5 203.07,603.5 362.07,603.5 						"/>
					</g>
					<g>
						<polygon class="st2" points="444,175 433,195 433,353.99 444,375.38 455,354 455,195 						"/>
						<polygon class="st2" points="661.5,175 650.5,195 650.5,353.99 661.5,375.38 672.5,354 672.5,195 						"/>
						<g>
							<polygon class="st2" points="444,384 433,404 433,562.99 444,584.38 455,563 455,404 							"/>
							<polygon class="st2" points="661.5,384 650.5,404 650.5,562.99 661.5,584.38 672.5,563 672.5,404 							"/>
						</g>
						<polygon class="st2" points="653.07,167.5 633.07,156.5 474.08,156.5 452.69,167.5 474.07,178.5 633.07,178.5 						"/>
						<polygon class="st2" points="653.07,592.5 633.07,581.5 474.08,581.5 452.69,592.5 474.07,603.5 633.07,603.5 						"/>
					</g>
				</g>
				<g>
					<g>
						<polygon class="st2" points="801,175 790,195 790,353.99 801,375.38 812,354 812,195 						"/>
						<polygon class="st2" points="1018.5,175 1007.5,195 1007.5,353.99 1018.5,375.38 1029.5,354 1029.5,195 						"/>
						<g>
							<polygon class="st2" points="801,384 790,404 790,562.99 801,584.38 812,563 812,404 							"/>
							<polygon class="st2" points="1018.5,384 1007.5,404 1007.5,562.99 1018.5,584.38 1029.5,563 1029.5,404 							"/>
						</g>
						<polygon class="st2" points="1010.07,167.5 990.07,156.5 831.08,156.5 809.69,167.5 831.07,178.5 990.07,178.5 						"/>
						<polygon class="st2" points="1010.07,592.5 990.07,581.5 831.08,581.5 809.69,592.5 831.07,603.5 990.07,603.5 						"/>
					</g>
					<g>
						<polygon class="st2" points="1072,175 1061,195 1061,353.99 1072,375.38 1083,354 1083,195 						"/>
						<polygon class="st2" points="1289.5,175 1278.5,195 1278.5,353.99 1289.5,375.38 1300.5,354 1300.5,195 						"/>
						<g>
							<polygon class="st2" points="1072,384 1061,404 1061,562.99 1072,584.38 1083,563 1083,404 							"/>
							<polygon class="st2" points="1289.5,384 1278.5,404 1278.5,562.99 1289.5,584.38 1300.5,563 1300.5,404 							"/>
						</g>
						<polygon class="st2" points="1281.07,167.5 1261.07,156.5 1102.08,156.5 1080.69,167.5 1102.07,178.5 1261.07,178.5 						"/>
						<polygon class="st2" points="1281.07,592.5 1261.07,581.5 1102.08,581.5 1080.69,592.5 1102.07,603.5 1261.07,603.5 						"/>
					</g>
				</g>
				<g>
					<rect x="717.5" y="324.5" class="st2" width="19" height="19"/>
					<rect x="718" y="416" class="st2" width="19" height="19"/>
				</g>
			</g>
		</g>
	</g>
</g>
</svg>
